<svg data-v-fde0c5aa="" xmlns="http://www.w3.org/2000/svg" viewBox="0 0 300 300" class="iconAbove"><!----><defs data-v-fde0c5aa=""><!----></defs><rect data-v-fde0c5aa="" fill="transparent" x="0" y="0" width="300px" height="300px" class="logo-background-square"></rect><defs data-v-fde0c5aa=""><!----></defs><g data-v-fde0c5aa="" id="f907e149-df12-4845-9b59-2235459b47fb" fill="#2e3034" transform="matrix(4.235217504234755,0,0,4.235217504234755,15.849486765069578,184.79247347996213)"><path d="M7.32 6.06C7.32 7.99 6.58 8.68 5.28 8.68C3.98 8.68 3.22 7.99 3.22 6.06L3.22 0.42L0.98 0.42L0.98 6.27C0.98 9.00 2.55 10.71 5.28 10.71C8.04 10.71 9.56 9.00 9.56 6.27L9.56 0.42L7.32 0.42ZM13.41 10.50L13.41 6.54C13.41 5.36 14.01 4.77 14.74 4.77C15.55 4.77 15.86 5.25 15.86 6.09L15.86 10.50L17.96 10.50L17.96 6.03C17.96 4.30 17.33 3.01 15.32 3.01C14.45 3.01 13.82 3.37 13.29 4.27L13.29 3.22L11.31 3.22L11.31 10.50ZM19.08 6.86C19.08 9.55 20.75 10.71 22.69 10.71C24.64 10.71 26.31 9.55 26.31 6.86C26.31 4.17 24.64 3.01 22.69 3.01C20.75 3.01 19.08 4.17 19.08 6.86ZM21.18 6.86C21.18 5.50 21.73 4.76 22.69 4.76C23.66 4.76 24.21 5.50 24.21 6.86C24.21 8.22 23.66 8.96 22.69 8.96C21.73 8.96 21.18 8.22 21.18 6.86ZM29.88 10.50L29.88 7.28L31.60 7.28C34.10 7.28 35.50 5.82 35.50 3.79C35.50 1.34 33.52 0.42 31.49 0.42L27.64 0.42L27.64 10.50ZM29.88 2.38L31.39 2.38C32.72 2.38 33.22 3.02 33.22 3.84C33.22 4.49 32.86 5.32 31.42 5.32L29.88 5.32ZM40.29 9.74C40.32 9.98 40.40 10.32 40.61 10.50L42.73 10.50C42.48 10.23 42.31 9.76 42.31 9.02L42.31 6.10C42.31 3.85 41.02 3.01 39.16 3.01C37.80 3.01 36.37 3.53 36.01 5.21L37.79 5.80C37.93 5.26 38.25 4.72 39.06 4.72C39.94 4.72 40.21 5.31 40.21 5.78L40.21 5.95C39.84 6.12 39.40 6.20 38.64 6.29C36.88 6.50 35.78 7.08 35.78 8.65C35.78 10.00 36.89 10.71 38.21 10.71C39.07 10.71 39.69 10.47 40.29 9.74ZM40.21 8.19C39.97 8.68 39.35 9.14 38.70 9.14C38.09 9.14 37.90 8.83 37.88 8.51C37.86 7.94 38.28 7.70 38.92 7.57C39.62 7.43 39.96 7.31 40.21 7.21ZM46.02 10.50L46.02 7.27C46.02 5.85 46.62 4.97 47.82 4.97C48.26 4.97 48.58 5.11 48.86 5.25L49.17 3.37C48.83 3.11 48.44 3.01 47.88 3.01C46.83 3.01 46.35 3.50 45.89 4.48L45.89 3.22L43.92 3.22L43.92 10.50ZM53.96 8.74C53.73 8.81 53.52 8.82 53.38 8.82C52.72 8.82 52.72 8.37 52.72 7.74L52.72 4.89L54.11 4.89L54.11 3.22L52.72 3.22L52.72 1.12L50.62 1.72L50.62 3.22L49.59 3.22L49.59 4.89L50.62 4.89L50.62 8.37C50.62 9.80 51.23 10.64 52.75 10.64C53.02 10.64 53.80 10.56 54.08 10.40ZM55.66 13.23C55.93 13.33 56.22 13.44 56.74 13.44C58.07 13.44 58.91 12.59 59.53 10.91L62.37 3.22L60.30 3.22L58.63 8.02L56.95 3.22L54.81 3.22L57.64 10.43L57.57 10.63C57.29 11.37 56.92 11.56 56.38 11.56C55.89 11.56 55.76 11.47 55.52 11.37L55.66 13.23Z"></path></g><defs data-v-fde0c5aa=""><!----></defs><g data-v-fde0c5aa="" id="56e3ab9a-7a00-42b3-a167-ab8971f2e657" stroke="none" fill="#488eff" transform="matrix(1.2267525888522606,0,0,1.2267525888522606,88.66140888114411,52.1524423484681)"><switch><g><path d="M71.8 5H28.2c-5.8 0-10.4 4.7-10.4 10.4v69.1c0 5.8 4.7 10.4 10.4 10.4h43.6c5.8 0 10.4-4.7 10.4-10.4V15.4C82.3 9.7 77.6 5 71.8 5zm2.1 74.6l-5.4 6.8-5.4-6.8 5.3-6.8 5.5 6.8zM62.4 50L50 65.6 37.6 50l12.2-15.6L62.4 50zM36.9 20.4l-5.4 6.8-5.4-6.8 5.3-6.8 5.5 6.8z"></path></g></switch></g><!----></svg>